<?xml version="1.0" encoding="iso-8859-1"?>
<!-- Generator: Adobe Illustrator 19.0.0, SVG Export Plug-In . SVG Version: 6.00 Build 0)  -->
<svg version="1.1" id="Capa_1" xmlns="http://www.w3.org/2000/svg" xmlns:xlink="http://www.w3.org/1999/xlink" x="0px" y="0px"
	 viewBox="0 0 448 448" style="enable-background:new 0 0 448 448;" xml:space="preserve">
<path style="fill:#9F2BFB;" d="M128,256c18.4,0,36.8-4,52.8-11.2L224,288l160,160h64v-64l-32-32h-32v-32h-32v-32h-32v-32h-32v-32
	l-43.2-43.2c7.2-16,11.2-33.6,11.2-52.8C256,57.6,198.4,0,128,0S0,57.6,0,128S57.6,256,128,256z M96,32c17.6,0,32,14.4,32,32
	s-14.4,32-32,32S64,81.6,64,64S78.4,32,96,32z"/>
<path style="fill:#7720BC;" d="M128,0C57.6,0,0,57.6,0,128s57.6,128,128,128c18.4,0,36.8-4,52.8-11.2c28-12.8,51.2-35.2,64-64
	c7.2-16,11.2-33.6,11.2-52.8C256,57.6,198.4,0,128,0z M96,96c-17.6,0-32-14.4-32-32s14.4-32,32-32s32,14.4,32,32S113.6,96,96,96z"/>
<g>
</g>
<g>
</g>
<g>
</g>
<g>
</g>
<g>
</g>
<g>
</g>
<g>
</g>
<g>
</g>
<g>
</g>
<g>
</g>
<g>
</g>
<g>
</g>
<g>
</g>
<g>
</g>
<g>
</g>
</svg>
